<?xml version="1.0" encoding="UTF-8" standalone="no"?>
<!-- Created with Inkscape (http://www.inkscape.org/) -->

<svg
   xmlns:dc="http://purl.org/dc/elements/1.1/"
   xmlns:cc="http://creativecommons.org/ns#"
   xmlns:rdf="http://www.w3.org/1999/02/22-rdf-syntax-ns#"
   xmlns:svg="http://www.w3.org/2000/svg"
   xmlns="http://www.w3.org/2000/svg"
   xmlns:xlink="http://www.w3.org/1999/xlink"
   xmlns:sodipodi="http://sodipodi.sourceforge.net/DTD/sodipodi-0.dtd"
   xmlns:inkscape="http://www.inkscape.org/namespaces/inkscape"
   width="560"
   height="220"
   id="svg6289"
   version="1.1"
   inkscape:version="0.48.5 r10040"
   sodipodi:docname="yax_js_logo_01.svg"
   inkscape:export-filename="/mnt/disk1/Designs/yax_js_logo_01-g.png"
   inkscape:export-xdpi="45"
   inkscape:export-ydpi="45">
  <defs
     id="defs6291">
    <linearGradient
       y2="484.71146"
       x2="186.57071"
       y1="509.91028"
       x1="161.37187"
       gradientUnits="userSpaceOnUse"
       id="linearGradient6178"
       xlink:href="#linearGradient6083-6"
       inkscape:collect="always" />
    <linearGradient
       inkscape:collect="always"
       id="linearGradient6083-6">
      <stop
         style="stop-color:#4b5057;stop-opacity:1;"
         offset="0"
         id="stop6085-7" />
      <stop
         style="stop-color:#4b5057;stop-opacity:0;"
         offset="1"
         id="stop6087-4" />
    </linearGradient>
    <linearGradient
       id="linearGradient3783-1">
      <stop
         id="stop3785-2"
         offset="0"
         style="stop-color:#1e94d3;stop-opacity:1;" />
      <stop
         style="stop-color:#1e94d3;stop-opacity:1;"
         offset="1"
         id="stop3803-6" />
    </linearGradient>
    <linearGradient
       gradientUnits="userSpaceOnUse"
       y2="50"
       x2="30"
       y1="90"
       x1="-10"
       id="linearGradient3827-7"
       xlink:href="#linearGradient3783-1"
       inkscape:collect="always" />
    <linearGradient
       gradientUnits="userSpaceOnUse"
       y2="50"
       x2="30"
       y1="90"
       x1="-10"
       id="linearGradient3827"
       xlink:href="#linearGradient3783"
       inkscape:collect="always" />
    <linearGradient
       id="linearGradient3783">
      <stop
         id="stop3785"
         offset="0"
         style="stop-color:#1e94d3;stop-opacity:1;" />
      <stop
         style="stop-color:#1e94d3;stop-opacity:1;"
         offset="1"
         id="stop3803" />
    </linearGradient>
    <linearGradient
       id="linearGradient3821">
      <stop
         id="stop3823"
         offset="0"
         style="stop-color:#37aee2;stop-opacity:1;" />
      <stop
         id="stop3825"
         offset="1"
         style="stop-color:#1e96c8;stop-opacity:1;" />
    </linearGradient>
    <linearGradient
       id="linearGradient3829">
      <stop
         style="stop-color:#1f96d4;stop-opacity:1;"
         offset="0"
         id="stop3831" />
      <stop
         style="stop-color:#37aee2;stop-opacity:1;"
         offset="1"
         id="stop3833" />
    </linearGradient>
    <linearGradient
       id="linearGradient3877">
      <stop
         id="stop3879"
         offset="0"
         style="stop-color:#eff7fc;stop-opacity:1;" />
      <stop
         id="stop3881"
         offset="1"
         style="stop-color:#ffffff;stop-opacity:1;" />
    </linearGradient>
    <linearGradient
       gradientUnits="userSpaceOnUse"
       y2="80"
       x2="6.6666665"
       y1="56.666668"
       x1="16.666666"
       id="linearGradient3873-8"
       xlink:href="#linearGradient3821-9"
       inkscape:collect="always" />
    <linearGradient
       id="linearGradient3821-9">
      <stop
         id="stop3823-4"
         offset="0"
         style="stop-color:#37afe1;stop-opacity:1;" />
      <stop
         id="stop3825-4"
         offset="1"
         style="stop-color:#1e96c8;stop-opacity:1;" />
    </linearGradient>
    <linearGradient
       inkscape:collect="always"
       xlink:href="#linearGradient5572-4-3"
       id="linearGradient6130-7-7"
       gradientUnits="userSpaceOnUse"
       gradientTransform="translate(-1.97614,-6.9999998e-6)"
       x1="170.16653"
       y1="554.35699"
       x2="203.21474"
       y2="431.01944" />
    <linearGradient
       inkscape:collect="always"
       id="linearGradient5572-4-3">
      <stop
         style="stop-color:#7fffd4;stop-opacity:1;"
         offset="0"
         id="stop5574-1-8" />
      <stop
         style="stop-color:#7fffd4;stop-opacity:0;"
         offset="1"
         id="stop5576-4-1" />
    </linearGradient>
    <linearGradient
       y2="484.71146"
       x2="186.57071"
       y1="509.91028"
       x1="161.37187"
       gradientUnits="userSpaceOnUse"
       id="linearGradient6287-2"
       xlink:href="#linearGradient6083-6-8"
       inkscape:collect="always" />
    <linearGradient
       inkscape:collect="always"
       id="linearGradient6083-6-8">
      <stop
         style="stop-color:#4b5057;stop-opacity:1;"
         offset="0"
         id="stop6085-7-9" />
      <stop
         style="stop-color:#4b5057;stop-opacity:0;"
         offset="1"
         id="stop6087-4-2" />
    </linearGradient>
    <linearGradient
       y2="80"
       x2="6.6666665"
       y1="56.171436"
       x1="6.6666665"
       gradientUnits="userSpaceOnUse"
       id="linearGradient3223-1"
       xlink:href="#linearGradient3821-9-7"
       inkscape:collect="always" />
    <linearGradient
       id="linearGradient3821-9-7">
      <stop
         id="stop3823-4-3"
         offset="0"
         style="stop-color:#37afe1;stop-opacity:1;" />
      <stop
         id="stop3825-4-1"
         offset="1"
         style="stop-color:#1e96c8;stop-opacity:1;" />
    </linearGradient>
    <linearGradient
       inkscape:collect="always"
       xlink:href="#linearGradient3821-9"
       id="linearGradient4385"
       gradientUnits="userSpaceOnUse"
       x1="6.6666665"
       y1="56.171436"
       x2="6.6666665"
       y2="88.590233" />
    <linearGradient
       inkscape:collect="always"
       xlink:href="#linearGradient3821-9"
       id="linearGradient4470"
       gradientUnits="userSpaceOnUse"
       x1="6.6666665"
       y1="56.171436"
       x2="6.6666665"
       y2="88.590233" />
    <linearGradient
       inkscape:collect="always"
       xlink:href="#linearGradient3821-9-9"
       id="linearGradient3975-6"
       gradientUnits="userSpaceOnUse"
       x1="6.6666665"
       y1="56.171436"
       x2="6.6666665"
       y2="88.590233" />
    <linearGradient
       id="linearGradient3821-9-9">
      <stop
         id="stop3823-4-9"
         offset="0"
         style="stop-color:#37afe1;stop-opacity:1;" />
      <stop
         id="stop3825-4-9"
         offset="1"
         style="stop-color:#1e96c8;stop-opacity:1;" />
    </linearGradient>
    <linearGradient
       inkscape:collect="always"
       xlink:href="#linearGradient3821-9-9"
       id="linearGradient3091"
       gradientUnits="userSpaceOnUse"
       x1="6.6666665"
       y1="56.171436"
       x2="6.6666665"
       y2="88.590233"
       gradientTransform="matrix(6,0,0,6,996.40639,-581.83766)" />
    <linearGradient
       inkscape:collect="always"
       xlink:href="#linearGradient3821-9"
       id="linearGradient3062"
       gradientUnits="userSpaceOnUse"
       x1="6.6666665"
       y1="56.171436"
       x2="6.6666665"
       y2="88.590233" />
    <linearGradient
       inkscape:collect="always"
       xlink:href="#linearGradient3821-9-74"
       id="linearGradient3062-1"
       gradientUnits="userSpaceOnUse"
       x1="6.6666665"
       y1="56.171436"
       x2="6.6666665"
       y2="88.590233" />
    <linearGradient
       id="linearGradient3821-9-74">
      <stop
         id="stop3823-4-0"
         offset="0"
         style="stop-color:#37afe1;stop-opacity:1;" />
      <stop
         id="stop3825-4-94"
         offset="1"
         style="stop-color:#1e96c8;stop-opacity:1;" />
    </linearGradient>
    <linearGradient
       inkscape:collect="always"
       xlink:href="#linearGradient3821-9-74"
       id="linearGradient3909"
       gradientUnits="userSpaceOnUse"
       x1="6.6666665"
       y1="56.171436"
       x2="6.6666665"
       y2="88.590233" />
    <linearGradient
       inkscape:collect="always"
       xlink:href="#linearGradient3821-9"
       id="linearGradient13141"
       gradientUnits="userSpaceOnUse"
       x1="6.6666665"
       y1="56.171436"
       x2="6.6666665"
       y2="88.590233" />
    <linearGradient
       id="linearGradient3821-9-8">
      <stop
         id="stop3823-4-2"
         offset="0"
         style="stop-color:#37afe1;stop-opacity:1;" />
      <stop
         id="stop3825-4-99"
         offset="1"
         style="stop-color:#1e96c8;stop-opacity:1;" />
    </linearGradient>
  </defs>
  <sodipodi:namedview
     id="base"
     pagecolor="#ffffff"
     bordercolor="#666666"
     borderopacity="0.19607843"
     inkscape:pageopacity="0.0"
     inkscape:pageshadow="2"
     inkscape:zoom="0.70710678"
     inkscape:cx="351.77208"
     inkscape:cy="116.14503"
     inkscape:document-units="px"
     inkscape:current-layer="layer1"
     showgrid="true"
     inkscape:showpageshadow="false"
     showborder="true"
     inkscape:window-width="1366"
     inkscape:window-height="711"
     inkscape:window-x="0"
     inkscape:window-y="25"
     inkscape:window-maximized="1"
     showguides="true"
     inkscape:guide-bbox="true"
     guidecolor="#ff00ff"
     guideopacity="0.19607843">
    <sodipodi:guide
       position="0,0"
       orientation="0,700"
       id="guide3977" />
    <sodipodi:guide
       position="560,0"
       orientation="1,0"
       id="guide3979" />
    <sodipodi:guide
       position="560,220"
       orientation="0,1"
       id="guide3981" />
    <sodipodi:guide
       position="0,280"
       orientation="280,0"
       id="guide3983" />
    <inkscape:grid
       type="xygrid"
       id="grid3985"
       empspacing="5"
       visible="true"
       enabled="true"
       snapvisiblegridlinesonly="true"
       empcolor="#0000ff"
       empopacity="0.07843137" />
  </sodipodi:namedview>
  <metadata
     id="metadata6294">
    <rdf:RDF>
      <cc:Work
         rdf:about="">
        <dc:format>image/svg+xml</dc:format>
        <dc:type
           rdf:resource="http://purl.org/dc/dcmitype/StillImage" />
        <dc:title></dc:title>
      </cc:Work>
    </rdf:RDF>
  </metadata>
  <g
     inkscape:label="Colored"
     inkscape:groupmode="layer"
     id="layer1"
     transform="translate(0,-832.36218)"
     style="display:inline"
     sodipodi:insensitive="true">
    <text
       xml:space="preserve"
       style="font-size:12.79159641px;font-style:normal;font-weight:normal;line-height:125%;letter-spacing:0px;word-spacing:0px;fill:#000000;fill-opacity:1;stroke:none;font-family:Sans"
       x="9.0936718"
       y="1081.3546"
       id="text4163"
       sodipodi:linespacing="125%"><tspan
         sodipodi:role="line"
         id="tspan4165"
         x="9.0936718"
         y="1081.3546"
         style="font-style:normal;font-variant:normal;font-weight:normal;font-stretch:normal;font-family:Titillium;-inkscape-font-specification:Titillium">YET ANOTHER EXTENSIBLE JAVASCRIPT APPLICATIONS DEVELOPMENT LIBRARY AND FRAMEWORK</tspan></text>
    <g
       id="g13129"
       transform="translate(-2.375e-4,-4.625e-6)">
      <g
         transform="matrix(0.625,0,0,0.625,344.82165,595.3501)"
         id="g4378">
        <path
           transform="matrix(8,0,0,8,-455.71428,-4.7806646)"
           d="m 30,70 a 20,20 0 1 1 -40,0 20,20 0 1 1 40,0 z"
           sodipodi:ry="20"
           sodipodi:rx="20"
           sodipodi:cy="70"
           sodipodi:cx="10"
           id="path2995-1-0-8"
           style="fill:url(#linearGradient13141);fill-opacity:1;stroke:none"
           sodipodi:type="arc" />
        <g
           id="g4373">
          <path
             inkscape:connector-curvature="0"
             id="path5425-6-8-9"
             d="m -308.26937,473.94673 -44.62226,11.98181 c 2.25189,3.60134 3.95131,7.70775 5.11546,12.29713 l 47.06189,0 c -1.42205,-9.04191 -4.05284,-17.10385 -7.55509,-24.27894 z"
             style="fill:#144458;fill-opacity:1;fill-rule:nonzero;stroke:none" />
          <path
             inkscape:connector-curvature="0"
             d="m -348.32665,508.1247 0,5.74812 c 0,3.92658 -0.29871,8.75114 -1.51008,12.36619 -3.00031,10.56796 -12.34596,18.41132 -24.39661,18.41132 -18.18671,0 -28.90956,-15.80622 -29.76423,-36.52563 l -46.44464,0 c 0.61735,41.45459 26.32732,70.32541 62.35056,70.32541 16.86863,0 31.03065,-6.94065 39.765,-19.00507 l 0.60129,0 0,9.34867 c 0,27.46037 -16.56992,38.9333 -38.25738,38.9333 -17.4737,0 -33.4411,-5.73954 -42.77796,-11.16768 l -9.04656,34.99469 c 13.26202,7.24849 33.44705,11.16532 53.02578,11.16532 21.69161,0 43.68788,-4.21489 59.65622,-18.09958 16.87115,-14.78644 22.59505,-38.01855 22.59505,-66.38771 l 0,-50.10735 -45.79644,0"
             style="fill:#f6fafd;fill-opacity:1;fill-rule:nonzero;stroke:none"
             id="path5427-7-6-2" />
          <path
             inkscape:connector-curvature="0"
             id="path5628-8-5-4"
             d="m -444.65444,498.22567 41.63167,-11.19354 0,-19.31279 -45.88141,0 c -0.0888,1.2625 -0.21409,2.54077 -0.47219,3.70489 -0.32166,1.42859 -0.81888,2.81402 -1.33791,4.17788 l 6.05984,22.62356 z"
             style="fill:#f0e68c;fill-opacity:1;fill-rule:nonzero;stroke:none" />
        </g>
      </g>
      <g
         transform="translate(20.75025,232.59375)"
         id="g13124">
        <path
           inkscape:connector-curvature="0"
           style="font-size:133.82463074px;font-style:normal;font-variant:normal;font-weight:normal;font-stretch:normal;text-align:start;line-height:125%;letter-spacing:0px;word-spacing:0px;writing-mode:lr-tb;text-anchor:start;fill:#14465a;fill-opacity:1;stroke:none;font-family:Titillium;-inkscape-font-specification:Titillium Semi-Light"
           d="m 201.34375,-172.59375 29.5625,53.65625 0,38.9375 10.3125,0 0,-38.9375 29.4375,-53.65625 -11.625,0 L 236,-129.25 l -23.03125,-43.34375 -11.625,0 z m 92.625,0 L 268.5625,-80 l 10.15625,0 6.6875,-23.8125 39.625,0 6.6875,23.8125 10.1875,0 -25.4375,-92.59375 -22.5,0 z m 53.625,0 L 376.25,-125.375 347.59375,-80 l 11.125,0 23.6875,-38.40625 L 405.6875,-80 l 11.65625,0 -28.53125,-45.625 28.53125,-46.96875 -11.125,0 L 382.65625,-133 359.25,-172.59375 l -11.65625,0 z m -45.84375,8.8125 6.96875,0 14.03125,50.71875 -35.0625,0 14.0625,-50.71875 z"
           transform="translate(0,832.36218)"
           id="path13086" />
        <path
           inkscape:connector-curvature="0"
           style="font-size:102.68554688px;font-style:normal;font-weight:normal;line-height:125%;letter-spacing:0px;word-spacing:0px;fill:#69696e;fill-opacity:1;stroke:none;font-family:Sans"
           d="m 506.34375,-152.1875 c -13.86254,0 -22.90625,5.33391 -22.90625,19.09375 0,13.55448 7.40974,17.06675 22.09375,20.25 11.60346,2.25908 15.8125,4.49054 15.8125,12.5 0,9.85781 -5.15558,14.28125 -15.21875,14.28125 -7.29067,0 -21.25,-1.84375 -21.25,-1.84375 l -0.8125,6.5625 c 0,0 14.04854,2.28125 22.46875,2.28125 14.06791,0 22.71875,-6.16413 22.71875,-21.875 0,-12.42494 -6.26691,-15.94175 -20.4375,-19.125 -12.42494,-2.77251 -17.375,-4.28956 -17.375,-13.53125 0,-8.00947 5.34307,-11.625 15.40625,-11.625 5.95575,0 20.25,1.75 20.25,1.75 l 0.71875,-6.65625 c 0,0 -13.04855,-2.0625 -21.46875,-2.0625 z m -44.0625,1.125 0,60.1875 c 0,10.57661 -2.24938,11.1875 -11.59375,11.1875 l 0,7.09375 c 13.55448,0 19.5,-1.75344 19.5,-17.15625 l -0.0937,-61.3125 -7.8125,0 z"
           transform="translate(0,832.36218)"
           id="path13094" />
        <path
           inkscape:connector-curvature="0"
           id="path3118-4"
           d="m 430.14661,737.10899 a 1.5528961,1.5528961 0 0 0 -1.38291,1.55274 l 0,11.83965 a 1.5528961,1.5528961 0 0 0 0.0485,0.75211 1.5528961,1.5528961 0 0 0 0,0.0242 1.5528961,1.5528961 0 0 0 0.0485,0.12131 1.5528961,1.5528961 0 0 0 0,0.0242 1.5528961,1.5528961 0 0 0 0.0728,0.12131 1.5528961,1.5528961 0 0 0 0,0.0242 1.5528961,1.5528961 0 0 0 0.0728,0.097 1.5528961,1.5528961 0 0 0 0,0.0242 1.5528961,1.5528961 0 0 0 0.0971,0.0971 1.5528961,1.5528961 0 0 0 0,0.0242 1.5528961,1.5528961 0 0 0 0.097,0.097 1.5528961,1.5528961 0 0 0 0.0242,0.0242 1.5528961,1.5528961 0 0 0 0.097,0.0728 1.5528961,1.5528961 0 0 0 0.0485,0.0485 1.5528961,1.5528961 0 0 0 0.0728,0.0485 1.5528961,1.5528961 0 0 0 0.0242,0 1.5528961,1.5528961 0 0 0 0.24262,0.14558 1.5528961,1.5528961 0 0 0 0.16982,0.0485 1.5528961,1.5528961 0 0 0 0.67933,0.0485 l 7.69092,0 a 1.5528961,1.5528961 0 0 0 1.55273,-1.55277 l 0,-12.13079 a 1.5528961,1.5528961 0 0 0 -1.55273,-1.55273 l -7.93353,0 a 1.5528961,1.5528961 0 0 0 -0.16984,0 z"
           style="font-size:154.8387146px;font-style:normal;font-variant:normal;font-weight:300;font-stretch:normal;text-align:start;line-height:125%;letter-spacing:0px;word-spacing:0px;writing-mode:lr-tb;text-anchor:start;fill:#237396;fill-opacity:1;stroke:none;font-family:Titillium;-inkscape-font-specification:Titillium Light" />
      </g>
    </g>
  </g>
  <g
     inkscape:groupmode="layer"
     id="layer2"
     inkscape:label="Greyscale"
     style="display:none"
     sodipodi:insensitive="true">
    <text
       xml:space="preserve"
       style="font-size:12.79159641px;font-style:normal;font-weight:normal;line-height:125%;letter-spacing:0px;word-spacing:0px;fill:#000000;fill-opacity:1;stroke:none;font-family:Sans"
       x="9.0936718"
       y="248.99243"
       id="text4163-2"
       sodipodi:linespacing="125%"><tspan
         sodipodi:role="line"
         id="tspan4165-6"
         x="9.0936718"
         y="248.99243"
         style="font-style:normal;font-variant:normal;font-weight:normal;font-stretch:normal;font-family:Titillium;-inkscape-font-specification:Titillium">YET ANOTHER EXTENSIBLE JAVASCRIPT APPLICATIONS DEVELOPMENT LIBRARY AND FRAMEWORK</tspan></text>
    <g
       id="g13253"
       transform="translate(7.5e-6,-20)">
      <path
         d="m 64.25,75.3125 c -0.0555,0.789062 -0.119938,1.584925 -0.28125,2.3125 -0.201038,0.892868 -0.519356,1.772587 -0.84375,2.625 l 3.78125,14.125 26.03125,-7 0,-12.0625 -28.6875,0 z M 152.15625,79.21875 124.25,86.6875 c 1.40743,2.250838 2.49116,4.819137 3.21875,7.6875 l 29.40625,0 c -0.88879,-5.651194 -2.52984,-10.671819 -4.71875,-15.15625 z m -88.875,21.34375 c 0.385844,25.90912 16.454224,43.96875 38.96875,43.96875 10.54289,0 19.41604,-4.33474 24.875,-11.875 l 0.375,0 0,5.8125 c 0,17.16273 -10.35159,24.34375 -23.90625,24.34375 -10.921065,0 -20.914463,-3.57616 -26.75,-6.96875 l -5.65625,21.875 c 8.288762,4.53031 20.919539,6.96875 33.15625,6.96875 13.55725,0 27.30104,-2.63457 37.28125,-11.3125 10.54447,-9.24152 14.125,-23.76927 14.125,-41.5 l 0,-31.3125 -28.625,0 0,3.59375 c 0,2.45411 -0.18039,5.45934 -0.9375,7.71875 -1.87519,6.60498 -7.71834,11.53125 -15.25,11.53125 -11.366691,0 -18.090831,-9.89412 -18.625,-22.84375 l -29.03125,0 z M 209.99998,130 c 0,55.22847 -44.77152,100 -99.99999,100 C 54.77151,230 9.999985,185.22847 9.999985,130 c 0,-55.228475 44.771525,-100 100.000005,-100 55.22847,0 99.99999,44.771525 99.99999,100 z"
         style="fill:#2e3436;fill-opacity:1;fill-rule:nonzero;stroke:none"
         id="path5425-6-8-9-57"
         inkscape:connector-curvature="0" />
      <path
         id="path13086-4"
         d="m 222.09375,80 29.5625,53.65625 0,38.9375 10.3125,0 0,-38.9375 L 291.40625,80 279.78125,80 256.75,123.34375 233.71875,80 l -11.625,0 z m 92.625,0 -25.40625,92.59375 10.15625,0 6.6875,-23.8125 39.625,0 6.6875,23.8125 10.1875,0 L 337.21875,80 l -22.5,0 z m 53.625,0 28.65625,47.21875 -28.65625,45.375 11.125,0 23.6875,-38.40625 23.28125,38.40625 11.65625,0 -28.53125,-45.625 L 438.09375,80 l -11.125,0 -23.5625,39.59375 L 380,80 368.34375,80 z M 322.5,88.8125 l 6.96875,0 14.03125,50.71875 -35.0625,0 L 322.5,88.8125 z m 204.59375,11.59375 c -13.86254,0 -22.90625,5.33391 -22.90625,19.09375 0,13.55448 7.40974,17.06675 22.09375,20.25 11.60346,2.25908 15.8125,4.49054 15.8125,12.5 0,9.85781 -5.15558,14.28125 -15.21875,14.28125 -7.29067,0 -21.25,-1.84375 -21.25,-1.84375 l -0.8125,6.5625 c 0,0 14.04854,2.28125 22.46875,2.28125 14.06791,0 22.71875,-6.16413 22.71875,-21.875 0,-12.42494 -6.26691,-15.94175 -20.4375,-19.125 -12.42494,-2.77251 -17.375,-4.28956 -17.375,-13.53125 0,-8.00947 5.34307,-11.625 15.40625,-11.625 5.95575,0 20.25,1.75 20.25,1.75 l 0.71875,-6.65625 c 0,0 -13.04855,-2.0625 -21.46875,-2.0625 z m -44.0625,1.125 0,60.1875 c 0,10.57661 -2.24938,11.1875 -11.59375,11.1875 l 0,7.09375 c 13.55448,0 19.5,-1.75344 19.5,-17.15625 l -0.0937,-61.3125 -7.8125,0 z m -32.125,55.8125 a 1.5528961,1.5528961 0 0 0 -1.40625,1.5625 l 0,11.8125 a 1.5528961,1.5528961 0 0 0 0.0625,0.78125 1.5528961,1.5528961 0 0 0 0.0625,0.125 1.5528961,1.5528961 0 0 0 0,0.0312 1.5528961,1.5528961 0 0 0 0.0625,0.125 1.5528961,1.5528961 0 0 0 0,0.0312 1.5528961,1.5528961 0 0 0 0.0625,0.0937 1.5528961,1.5528961 0 0 0 0.0937,0.125 1.5528961,1.5528961 0 0 0 0.0937,0.0937 1.5528961,1.5528961 0 0 0 0.0312,0.0312 1.5528961,1.5528961 0 0 0 0.0937,0.0937 1.5528961,1.5528961 0 0 0 0.0625,0.0312 1.5528961,1.5528961 0 0 0 0.0625,0.0625 1.5528961,1.5528961 0 0 0 0.0312,0 1.5528961,1.5528961 0 0 0 0.25,0.125 1.5528961,1.5528961 0 0 0 0.15625,0.0625 1.5528961,1.5528961 0 0 0 0.6875,0.0312 l 7.6875,0 a 1.5528961,1.5528961 0 0 0 1.5625,-1.53125 l 0,-12.125 A 1.5528961,1.5528961 0 0 0 459,157.34375 l -7.9375,0 a 1.5528961,1.5528961 0 0 0 -0.15625,0 z"
         style="font-size:133.82463074px;font-style:normal;font-variant:normal;font-weight:normal;font-stretch:normal;text-align:start;line-height:125%;letter-spacing:0px;word-spacing:0px;writing-mode:lr-tb;text-anchor:start;fill:#2e3436;fill-opacity:1;stroke:none;font-family:Titillium;-inkscape-font-specification:Titillium Semi-Light"
         inkscape:connector-curvature="0" />
    </g>
  </g>
</svg>
