<?xml version="1.0" encoding="UTF-8" standalone="no"?><svg xmlns:rdf="http://www.w3.org/1999/02/22-rdf-syntax-ns#" xmlns="http://www.w3.org/2000/svg" height="280" width="700" version="1.1" xmlns:cc="http://creativecommons.org/ns#" xmlns:xlink="http://www.w3.org/1999/xlink" xmlns:dc="http://purl.org/dc/elements/1.1/"><defs><linearGradient id="linearGradient3975" y2="88.59" gradientUnits="userSpaceOnUse" x2="6.6667" y1="56.171" x1="6.6667"><stop stop-color="#37afe1" offset="0"/><stop stop-color="#1e96c8" offset="1"/></linearGradient></defs><metadata><rdf:RDF><cc:Work rdf:about=""><dc:format>image/svg+xml</dc:format><dc:type rdf:resource="http://purl.org/dc/dcmitype/StillImage"/><dc:title/></cc:Work></rdf:RDF></metadata><g transform="translate(0,-772.36218)"><g transform="matrix(0.75,0,0,0.75,421.78583,495.94768)"><path d="m30,70c0,11.046-8.9543,20-20,20s-20-8.9543-20-20,8.9543-20,20-20,20,8.9543,20,20z" transform="matrix(8,0,0,8,-455.71428,-4.7806646)" fill="url(#linearGradient3975)"/><path fill-rule="nonzero" fill="#144458" d="m-308.27,473.95-44.622,11.982c2.2519,3.6013,3.9513,7.7078,5.1155,12.297h47.062c-1.422-9.0419-4.0528-17.104-7.5551-24.279z"/><path fill-rule="nonzero" fill="#f6fafd" d="m-348.33,508.12,0,5.7481c0,3.9266-0.29871,8.7511-1.5101,12.366-3.0003,10.568-12.346,18.411-24.397,18.411-18.187,0-28.91-15.806-29.764-36.526h-46.445c0.61735,41.455,26.327,70.325,62.351,70.325,16.869,0,31.031-6.9406,39.765-19.005h0.60129v9.3487c0,27.46-16.57,38.933-38.257,38.933-17.474,0-33.441-5.7395-42.778-11.168l-9.0466,34.995c13.262,7.2485,33.447,11.165,53.026,11.165,21.692,0,43.688-4.2149,59.656-18.1,16.871-14.786,22.595-38.019,22.595-66.388v-50.107h-45.796"/><path fill-rule="nonzero" fill="#f0e68c" d="m-444.65,498.23,41.632-11.194,0-19.313-45.881,0c-0.0888,1.2625-0.21409,2.5408-0.47219,3.7049-0.32166,1.4286-0.81888,2.814-1.3379,4.1779l6.0598,22.624z"/></g><g transform="translate(20.893433,15.35717)"><path d="m261.05,838.63a1.9284,1.9284,0,0,0,-1.6872,2.8923l33.05,59.412v43.384a1.9284,1.9284,0,0,0,1.9282,1.9282h9.2493a1.9284,1.9284,0,0,0,1.9282,-1.9282v-43.384l33.05-59.412a1.9284,1.9284,0,0,0,-1.6872,-2.8923h-10.454a1.9284,1.9284,0,0,0,-1.6872,1.0244l-25.759,47.181-25.94-47.181a1.9284,1.9284,0,0,0,-1.6872,-1.0244h-10.304zm104.24,0a1.9284,1.9284,0,0,0,-1.8378,1.416l-29.736,103.37-0.0301,0.0904a1.9284,1.9284,0,0,0,-0.18077,0.66281,1.9284,1.9284,0,0,0,0,0.36154,1.9284,1.9284,0,0,0,0.0301,0.2109,1.9284,1.9284,0,0,0,0.12051,0.36153,1.9284,1.9284,0,0,0,0.0904,0.18077,1.9284,1.9284,0,0,0,0.0904,0.15064,1.9284,1.9284,0,0,0,0.24102,0.30128,1.9284,1.9284,0,0,0,0.15064,0.12051,1.9284,1.9284,0,0,0,1.4763,0.39167h8.9782a1.9284,1.9284,0,0,0,1.8679,-1.3859l7.8032-27.266h43.354l7.9839,27.266a1.9284,1.9284,0,0,0,1.8378,1.3859h9.1288a1.9284,1.9284,0,0,0,1.8378,-2.4705l-29.69-103.72a1.9284,1.9284,0,0,0,-1.8378,-1.416h-21.662zm58.177,0a1.9284,1.9284,0,0,0,-1.6269,2.9526l31.906,51.67-31.906,50.043a1.9284,1.9284,0,0,0,1.6269,2.9526h10.153a1.9284,1.9284,0,0,0,1.6269,-0.90384l26.573-42.149,26.151,42.149a1.9284,1.9284,0,0,0,1.6269,0.90384h10.454a1.9284,1.9284,0,0,0,1.6269,-2.9526l-31.604-50.193,31.634-51.519a1.9284,1.9284,0,0,0,-1.657,-2.9526h-10.153a1.9284,1.9284,0,0,0,-1.6269,0.93397l-26.302,43.143-26.242-42.902a1.9284,1.9284,0,0,0,-0.0904,-0.18077l-0.0603-0.0603a1.9284,1.9284,0,0,0,-0.24102,-0.30128,1.9284,1.9284,0,0,0,-0.0603,-0.0904,1.9284,1.9284,0,0,0,-0.0603,-0.0603,1.9284,1.9284,0,0,0,-0.0904,-0.0602,1.9284,1.9284,0,0,0,-0.0602,-0.0603,1.9284,1.9284,0,0,0,-0.27116,-0.15064,1.9284,1.9284,0,0,0,-0.24102,-0.12051,1.9284,1.9284,0,0,0,-0.12051,-0.0301,1.9284,1.9284,0,0,0,-0.18077,-0.0301,1.9284,1.9284,0,0,0,-0.27115,-0.0301,1.9284,1.9284,0,0,0,-0.0603,0h-0.33141-10.123zm-49.982,11.931,5.1218,0,15.757,54.954-36.636,0,15.757-54.954z" style="text-align:start;" fill="#14465a"/><path d="m518.69,927.33a1.9284,1.9284,0,0,0,-1.7173,1.9282v14.702a1.9284,1.9284,0,0,0,0.0603,0.93397,1.9284,1.9284,0,0,0,0,0.0301,1.9284,1.9284,0,0,0,0.0603,0.15064,1.9284,1.9284,0,0,0,0,0.0301,1.9284,1.9284,0,0,0,0.0904,0.15064,1.9284,1.9284,0,0,0,0,0.0301,1.9284,1.9284,0,0,0,0.0904,0.12051,1.9284,1.9284,0,0,0,0,0.0301,1.9284,1.9284,0,0,0,0.12052,0.12051,1.9284,1.9284,0,0,0,0,0.0301,1.9284,1.9284,0,0,0,0.12051,0.12051,1.9284,1.9284,0,0,0,0.0301,0.0301,1.9284,1.9284,0,0,0,0.12051,0.0904,1.9284,1.9284,0,0,0,0.0602,0.0602,1.9284,1.9284,0,0,0,0.0904,0.0603,1.9284,1.9284,0,0,0,0.0301,0,1.9284,1.9284,0,0,0,0.30128,0.18077,1.9284,1.9284,0,0,0,0.21089,0.0602,1.9284,1.9284,0,0,0,0.84359,0.0603h9.5506a1.9284,1.9284,0,0,0,1.9282,-1.9282v-15.064a1.9284,1.9284,0,0,0,-1.9282,-1.9282h-9.8519a1.9284,1.9284,0,0,0,-0.2109,0z" style="text-align:start;" fill="#237396"/><path d="m624.31,837.01c-10.242,0-18.86,1.8925-25.067,6.598-6.2065,4.7056-9.7012,12.234-9.7012,22.506,0,10.65,3.0669,17.724,8.9782,22.295,5.9112,4.5706,14.264,6.6788,24.856,8.707,8.5851,1.5542,14.364,3.1914,17.715,5.6641,3.3511,2.4727,4.7301,5.6791,4.7301,11.84,0,7.6681-1.8396,12.717-5.2724,15.938-3.4328,3.2203-8.7546,4.8205-16.239,4.8205-10.291,0-30.791-2.5308-30.791-2.5308a1.9284,1.9284,0,0,0,-2.1692,1.6872l-1.0244,7.8936a1.9284,1.9284,0,0,0,1.6269,2.1692s20.557,2.8622,32.659,2.8622c10.493,0,19.177-2.1811,25.247-7.6224,6.0707-5.4413,9.2493-13.987,9.2493-25.82,0-9.5203-2.6742-16.108-8.1044-20.517-5.4302-4.4095-13.229-6.6438-23.47-8.6769-9.1577-1.7869-15.553-3.298-19.312-5.875-3.7587-2.577-5.3929-6.08-5.3929-13.437,0-5.993,1.8266-9.8254,5.3929-12.443,3.5664-2.6175,9.1571-4.007,16.691-4.007,8.2814,0,29.043,2.5308,29.043,2.5308a1.9284,1.9284,0,0,0,2.1391,-1.7173l0.72307-7.6525a1.9284,1.9284,0,0,0,0,-0.0301,1.9284,1.9284,0,0,0,0.0301,-0.63269,1.9284,1.9284,0,0,0,-0.0301,-0.27115,1.9284,1.9284,0,0,0,-0.0301,-0.0904,1.9284,1.9284,0,0,0,-0.0904,-0.18077,1.9284,1.9284,0,0,0,-0.0301,-0.0904,1.9284,1.9284,0,0,0,-0.0301,-0.0904,1.9284,1.9284,0,0,0,-0.15064,-0.24102,1.9284,1.9284,0,0,0,-0.0602,-0.0904,1.9284,1.9284,0,0,0,-0.0904,-0.0602,1.9284,1.9284,0,0,0,-0.0602,-0.0603,1.9284,1.9284,0,0,0,-0.0603,-0.0603,1.9284,1.9284,0,0,0,-0.0904,-0.0904,1.9284,1.9284,0,0,0,-0.0603,-0.0301,1.9284,1.9284,0,0,0,-0.0904,-0.0602,1.9284,1.9284,0,0,0,-0.0904,-0.0603,1.9284,1.9284,0,0,0,-0.18077,-0.0904,1.9284,1.9284,0,0,0,-0.0603,-0.0301,1.9284,1.9284,0,0,0,-0.12051,-0.0301,1.9284,1.9284,0,0,0,-0.63269,-0.12051,1.9284,1.9284,0,0,0,-0.0603,0c-0.65158-0.10006-18.352-2.8019-30.52-2.8019zm-62.124,1.6269a1.9284,1.9284,0,0,0,-1.9282,1.9282v88.546c0,4.1924-0.20586,7.3034-0.69295,9.5205-0.48708,2.2171-1.1842,3.4559-2.1391,4.2782-1.9098,1.6445-6.0053,2.0186-13.437,2.0186a1.9284,1.9284,0,0,0,-1.9282,1.9282v8.225a1.9284,1.9284,0,0,0,1.9282,1.9282c9.6091,0,16.825-0.29354,21.963-4.007,2.5692-1.8568,4.4403-4.5675,5.6038-8.1647s1.6872-8.0828,1.6872-13.799v-90.113a1.9284,1.9284,0,0,0,0,-0.18077,1.9284,1.9284,0,0,0,-0.0301,-0.54231,1.9284,1.9284,0,0,0,0,-0.0301,1.9284,1.9284,0,0,0,-0.12051,-0.36153,1.9284,1.9284,0,0,0,-0.0904,-0.18077,1.9284,1.9284,0,0,0,-0.0904,-0.15064,1.9284,1.9284,0,0,0,0,-0.0301,1.9284,1.9284,0,0,0,-0.12051,-0.12051,1.9284,1.9284,0,0,0,0,-0.0301,1.9284,1.9284,0,0,0,-0.27116,-0.24102,1.9284,1.9284,0,0,0,-0.18076,-0.12052,1.9284,1.9284,0,0,0,-0.12052,-0.0904,1.9284,1.9284,0,0,0,-0.0301,0,1.9284,1.9284,0,0,0,-0.15064,-0.0904,1.9284,1.9284,0,0,0,-0.0301,0,1.9284,1.9284,0,0,0,-0.15064,-0.0603,1.9284,1.9284,0,0,0,-0.0301,0,1.9284,1.9284,0,0,0,-0.18077,-0.0301,1.9284,1.9284,0,0,0,-0.33141,-0.0301h-0.24102-8.8878z" style="text-align:start;" fill="#69696e"/></g></g></svg>
